Input #0, lavfi, from 'smptebars=duration=60:size=1920x1080:rate=30':
  Duration: N/A, start: 0.000000, bitrate: N/A
  Stream #0:0: Video: rawvideo (I420 / 0x30323449), yuv420p, 1920x1080 [SAR 1:1 DAR 16:9], 30 tbr, 30 tbn, 30 tbc
Stream mapping:
  Stream #0:0 -> #0:0 (rawvideo (native) -> h264 (h264_nvenc))
Press [q] to stop, [?] for help
Output #0, mp4, to './test_results/temp_tests_gpu/test_test_50_11/output.mp4':
  Metadata:
    encoder         : Lavf58.76.100
  Stream #0:0: Video: h264 (Main) (avc1 / 0x31637661), yuv420p(tv, progressive), 1280x720 [SAR 1:1 DAR 16:9], q=2-31, 30 fps, 15360 tbn
    Metadata:
      encoder         : Lavc58.134.100 h264_nvenc
    Side data:
      cpb: bitrate max/min/avg: 3000000/0/0 buffer size: 4000000 vbv_delay: N/A
frame=    1 fps=0.0 q=0.0 size=       0kB time=00:00:00.00 bitrate=N/A speed=N/A    frame=    2 fps=1.0 q=0.0 size=       0kB time=00:00:00.00 bitrate=N/A speed=   0x    frame=  225 fps= 88 q=23.0 size=       0kB time=00:00:07.40 bitrate=   0.1kbits/s speed= 2.9x    frame=  475 fps=155 q=23.0 size=       0kB time=00:00:15.73 bitrate=   0.0kbits/s speed=5.15x    frame=  724 fps=204 q=23.0 size=       0kB time=00:00:24.03 bitrate=   0.0kbits/s speed=6.76x    frame=  967 fps=238 q=23.0 size=       0kB time=00:00:32.13 bitrate=   0.0kbits/s speed=7.92x    frame= 1179 fps=259 q=23.0 size=       0kB time=00:00:39.20 bitrate=   0.0kbits/s speed= 8.6x    frame= 1398 fps=275 q=23.0 size=       0kB time=00:00:46.50 bitrate=   0.0kbits/s speed=9.16x    frame= 1608 fps=288 q=23.0 size=       0kB time=00:00:53.50 bitrate=   0.0kbits/s speed=9.59x    frame= 1785 fps=294 q=23.0 size=       0kB time=00:00:59.40 bitrate=   0.0kbits/s speed=9.77x    [mp4 @ 0x59e844199740] Starting second pass: moving the moov atom to the beginning of the file
frame= 1800 fps=294 q=23.0 Lsize=     142kB time=00:00:59.96 bitrate=  19.4kbits/s speed= 9.8x    
video:134kB audio:0kB subtitle:0kB other streams:0kB global headers:0kB muxing overhead: 5.963520%
